<svg width="378" height="149" viewBox="0 0 378 149" fill="none" xmlns="http://www.w3.org/2000/svg">
<path d="M331 148.171V23.1106C331 20.2663 334.098 18 337.274 18H371.491C374.68 18 377.686 20.2663 377.686 23.1106V148.182H331V148.171Z" fill="#083D57"/>
<path d="M350 27H357.626V35.51H350V27Z" fill="white"/>
<path d="M364 27H371.626V35.51H364V27Z" fill="white"/>
<path d="M337 27H344.626V35.51H337V27Z" fill="white"/>
<path d="M364 46H371.626V54.51H364V46Z" fill="white"/>
<path d="M350 46H357.626V54.51H350V46Z" fill="white"/>
<g clip-path="url(#clip0_87_488)">
<path d="M0 82.1517V27.2182C0 25.4838 1.91625 24.1079 3.885 24.1079H25.0425C27.0112 24.1079 28.875 25.4838 28.875 27.2182V82.1517H0Z" fill="#083D57"/>
<path d="M5.25 40.6653H11.8913V47.9728H5.25V40.6653Z" fill="white"/>
<path d="M16.8656 40.6653H23.5068V47.9728H16.8656V40.6653Z" fill="white"/>
<path d="M5.25 30.3284H11.8913V37.6359H5.25V30.3284Z" fill="white"/>
<path d="M16.8656 56.6909H23.5068V63.9984H16.8656V56.6909Z" fill="white"/>
<path d="M144.375 47.9729H151.016V55.2804H144.375V47.9729Z" fill="white"/>
<path d="M155.991 47.9729H162.632V55.2804H155.991V47.9729Z" fill="white"/>
<path d="M155.991 67.0396H162.632V74.3471H155.991V67.0396Z" fill="white"/>
<path d="M144.375 58.9341H151.016V66.2416H144.375V58.9341Z" fill="white"/>
<path d="M96.2456 147.861V13.1003C96.2456 10.5219 99.0806 8.47534 102.007 8.47534H133.429C136.356 8.47534 139.125 10.5219 139.125 13.1003V147.85H96.2456V147.861Z" fill="#083D57"/>
<path d="M147.105 147.861V40.8503C147.105 38.2719 149.94 36.2253 152.867 36.2253H168V147.85H147.105V147.861Z" fill="#083D57"/>
<path d="M102.375 20.0378H109.371V27.75H102.375V20.0378Z" fill="white"/>
<path d="M114.621 20.0378H121.616V27.75H114.621V20.0378Z" fill="white"/>
<path d="M102.375 31.6003H109.371V39.3125H102.375V31.6003Z" fill="white"/>
<path d="M126.879 31.6003H133.875V39.3125H126.879V31.6003Z" fill="white"/>
<path d="M126.879 47.7878H133.875V55.5H126.879V47.7878Z" fill="white"/>
<path d="M126.879 59.3503H133.875V67.0625H126.879V59.3503Z" fill="white"/>
<path d="M36.9731 147.977V22.9168C36.9731 20.0724 40.0706 17.8062 43.2469 17.8062H77.4638C80.6531 17.8062 83.6588 20.0724 83.6588 22.9168V147.988H36.9731V147.977Z" fill="#083D57"/>
<path d="M56.9888 23.7957H64.6144V32.3057H56.9888V23.7957Z" fill="white"/>
<path d="M70.3237 23.7957H77.9494V32.3057H70.3237V23.7957Z" fill="white"/>
<path d="M43.6406 36.5723H51.2663V45.0823H43.6406V36.5723Z" fill="white"/>
<path d="M70.3237 36.5723H77.9494V45.0823H70.3237V36.5723Z" fill="white"/>
<path d="M43.6406 62.0674H51.2663V70.5774H43.6406V62.0674Z" fill="white"/>
<path d="M56.9888 49.3486H64.6144V57.8586H56.9888V49.3486Z" fill="white"/>
<path d="M70.3237 74.844H77.9494V83.354H70.3237V74.844Z" fill="white"/>
<path d="M67.9088 21.2056H54.6394C53.9465 21.2056 53.2604 21.0854 52.6203 20.8518C51.9801 20.6182 51.3985 20.2758 50.9085 19.8442C50.4186 19.4126 50.0299 18.9002 49.7648 18.3363C49.4996 17.7723 49.3632 17.1679 49.3632 16.5575V15.6325C49.3632 13.0656 51.7257 10.9844 54.6394 10.9844H67.9088C70.8225 10.9844 73.185 13.0656 73.185 15.6325V16.5575C73.185 19.1244 70.8225 21.2056 67.9088 21.2056V21.2056Z" fill="#083D57"/>
<path d="M83.0944 53.1875H99.75V69.375H83.0944V53.1875Z" fill="#083D57"/>
<path d="M115.5 147.977V52.147C115.5 49.0482 118.926 46.5738 122.443 46.5738L161.149 46.3657C164.666 46.3657 168 48.8285 168 51.9388V147.977H115.5Z" fill="#006CA2"/>
<path d="M139.125 60.2407H147V68.3345H139.125V60.2407Z" fill="white"/>
<path d="M124.688 60.2407H132.562V68.3345H124.688V60.2407Z" fill="white"/>
<path d="M153.562 72.9595H161.438V81.0532H153.562V72.9595Z" fill="white"/>
<path d="M139.125 72.9595H147V81.0532H139.125V72.9595Z" fill="white"/>
<path d="M139.125 85.6782H147V93.772H139.125V85.6782Z" fill="white"/>
<path d="M124.688 85.6782H132.562V93.772H124.688V85.6782Z" fill="white"/>
<path d="M153.562 98.397H161.438V106.491H153.562V98.397Z" fill="white"/>
<path d="M139.125 98.397H147V106.491H139.125V98.397Z" fill="white"/>
<path d="M124.688 98.397H132.562V106.491H124.688V98.397Z" fill="white"/>
<path d="M139.125 123.834H147V131.928H139.125V123.834Z" fill="white"/>
<path d="M124.688 111.116H132.562V119.209H124.688V111.116Z" fill="white"/>
<path d="M35.5819 54.9218H18.7426C16.5507 54.9218 14.7788 54.0662 14.7788 52.1353V47.9496C14.7788 46.0187 16.5507 44.4578 18.7426 44.4578H35.5819C37.7738 44.4578 39.5457 46.0187 39.5457 47.9496V52.1353C39.5457 54.0662 37.7738 54.9218 35.5819 54.9218Z" fill="#006CA2"/>
<path d="M0 147.954V57.8125C0 54.7137 3.42562 52.2394 6.94312 52.2394L45.6487 52.0312C49.1662 52.0312 52.5 54.4941 52.5 57.6044V147.954H0V147.954Z" fill="#006CA2"/>
<path d="M23.625 60.9922H31.5V69.0859H23.625V60.9922Z" fill="white"/>
<path d="M38.0625 60.8071H45.9375V68.9009H38.0625V60.8071Z" fill="white"/>
<path d="M9.08252 73.5259H16.9575V81.6196H9.08252V73.5259Z" fill="white"/>
<path d="M23.625 73.7109H31.5V81.8047H23.625V73.7109Z" fill="white"/>
<path d="M23.625 86.4297H31.5V94.5234H23.625V86.4297Z" fill="white"/>
<path d="M38.0625 99.1484H45.9375V107.242H38.0625V99.1484Z" fill="white"/>
<path d="M9.1875 99.1484H17.0625V107.242H9.1875V99.1484Z" fill="white"/>
<path d="M38.0625 124.586H45.9375V132.68H38.0625V124.586Z" fill="white"/>
<path d="M23.625 124.586H31.5V132.68H23.625V124.586Z" fill="white"/>
<path d="M9.1875 111.867H17.0625V119.961H9.1875V111.867Z" fill="white"/>
<path d="M53.8613 88.7231H43.0421C41.6338 88.7231 40.4954 88.1734 40.4954 86.9328V84.2435C40.4954 83.0029 41.6338 82 43.0421 82H53.8613C55.2696 82 56.408 83.0029 56.408 84.2435V86.9328C56.408 88.1734 55.2696 88.7231 53.8613 88.7231Z" fill="#A555B9"/>
<path d="M31 148.496V90.5804C31 88.5895 33.201 86.9997 35.4609 86.9997L60.3292 86.866C62.5892 86.866 64.7311 88.4483 64.7311 90.4467V148.496H31V148.496Z" fill="#A555B9"/>
<path d="M46.179 92.6233H51.2386V97.8235H46.179V92.6233Z" fill="white"/>
<path d="M55.4551 92.5044H60.5148V97.7046H55.4551V92.5044Z" fill="white"/>
<path d="M36.8354 100.676H41.8951V105.876H36.8354V100.676Z" fill="white"/>
<path d="M46.179 100.795H51.2386V105.995H46.179V100.795Z" fill="white"/>
<path d="M46.179 108.967H51.2386V114.167H46.179V108.967Z" fill="white"/>
<path d="M55.4551 117.139H60.5148V122.339H55.4551V117.139Z" fill="white"/>
<path d="M36.903 117.139H41.9626V122.339H36.903V117.139Z" fill="white"/>
<path d="M55.4551 133.482H60.5148V138.682H55.4551V133.482Z" fill="white"/>
<path d="M46.179 133.482H51.2386V138.682H46.179V133.482Z" fill="white"/>
<path d="M36.903 125.31H41.9626V130.511H36.903V125.31Z" fill="white"/>
<path d="M115.861 88.7231H105.042C103.634 88.7231 102.495 88.1734 102.495 86.9328V84.2435C102.495 83.0029 103.634 82 105.042 82H115.861C117.27 82 118.408 83.0029 118.408 84.2435V86.9328C118.408 88.1734 117.27 88.7231 115.861 88.7231Z" fill="#A555B9"/>
<path d="M93 148.496V90.5804C93 88.5895 95.201 86.9997 97.4609 86.9997L122.329 86.866C124.589 86.866 126.731 88.4483 126.731 90.4467V148.496H93V148.496Z" fill="#A555B9"/>
<path d="M108.179 92.6233H113.239V97.8235H108.179V92.6233Z" fill="white"/>
<path d="M117.455 92.5044H122.515V97.7046H117.455V92.5044Z" fill="white"/>
<path d="M98.8355 100.676H103.895V105.876H98.8355V100.676Z" fill="white"/>
<path d="M108.179 100.795H113.239V105.995H108.179V100.795Z" fill="white"/>
<path d="M108.179 108.967H113.239V114.167H108.179V108.967Z" fill="white"/>
<path d="M117.455 117.139H122.515V122.339H117.455V117.139Z" fill="white"/>
<path d="M98.903 117.139H103.963V122.339H98.903V117.139Z" fill="white"/>
<path d="M117.455 133.482H122.515V138.682H117.455V133.482Z" fill="white"/>
<path d="M108.179 133.482H113.239V138.682H108.179V133.482Z" fill="white"/>
<path d="M98.903 125.31H103.963V130.511H98.903V125.31Z" fill="white"/>
</g>
<g clip-path="url(#clip1_87_488)">
<path d="M168 82.1517V27.2182C168 25.4838 169.916 24.1079 171.885 24.1079H193.042C195.011 24.1079 196.875 25.4838 196.875 27.2182V82.1517H168Z" fill="#083D57"/>
<path d="M173.25 40.6653H179.891V47.9728H173.25V40.6653Z" fill="white"/>
<path d="M184.866 40.6653H191.507V47.9728H184.866V40.6653Z" fill="white"/>
<path d="M173.25 30.3284H179.891V37.6359H173.25V30.3284Z" fill="white"/>
<path d="M184.866 56.6909H191.507V63.9984H184.866V56.6909Z" fill="white"/>
<path d="M312.375 47.9729H319.016V55.2804H312.375V47.9729Z" fill="white"/>
<path d="M323.991 47.9729H330.632V55.2804H323.991V47.9729Z" fill="white"/>
<path d="M323.991 67.0396H330.632V74.3471H323.991V67.0396Z" fill="white"/>
<path d="M312.375 58.9341H319.016V66.2416H312.375V58.9341Z" fill="white"/>
<path d="M264.246 147.861V13.1003C264.246 10.5219 267.081 8.47534 270.007 8.47534H301.429C304.356 8.47534 307.125 10.5219 307.125 13.1003V147.85H264.246V147.861Z" fill="#083D57"/>
<path d="M315.105 147.861V40.8503C315.105 38.2719 317.94 36.2253 320.867 36.2253H336V147.85H315.105V147.861Z" fill="#083D57"/>
<path d="M270.375 20.0378H277.371V27.75H270.375V20.0378Z" fill="white"/>
<path d="M282.621 20.0378H289.616V27.75H282.621V20.0378Z" fill="white"/>
<path d="M270.375 31.6003H277.371V39.3125H270.375V31.6003Z" fill="white"/>
<path d="M294.879 31.6003H301.875V39.3125H294.879V31.6003Z" fill="white"/>
<path d="M294.879 47.7878H301.875V55.5H294.879V47.7878Z" fill="white"/>
<path d="M294.879 59.3503H301.875V67.0625H294.879V59.3503Z" fill="white"/>
<path d="M204.973 147.977V22.9168C204.973 20.0724 208.071 17.8062 211.247 17.8062H245.464C248.653 17.8062 251.659 20.0724 251.659 22.9168V147.988H204.973V147.977Z" fill="#083D57"/>
<path d="M224.989 23.7957H232.614V32.3057H224.989V23.7957Z" fill="white"/>
<path d="M238.324 23.7957H245.949V32.3057H238.324V23.7957Z" fill="white"/>
<path d="M211.641 36.5723H219.266V45.0823H211.641V36.5723Z" fill="white"/>
<path d="M238.324 36.5723H245.949V45.0823H238.324V36.5723Z" fill="white"/>
<path d="M211.641 62.0674H219.266V70.5774H211.641V62.0674Z" fill="white"/>
<path d="M224.989 49.3486H232.614V57.8586H224.989V49.3486Z" fill="white"/>
<path d="M238.324 74.844H245.949V83.354H238.324V74.844Z" fill="white"/>
<path d="M235.909 21.2056H222.639C221.947 21.2056 221.26 21.0854 220.62 20.8518C219.98 20.6182 219.398 20.2758 218.909 19.8442C218.419 19.4126 218.03 18.9002 217.765 18.3363C217.5 17.7723 217.363 17.1679 217.363 16.5575V15.6325C217.363 13.0656 219.726 10.9844 222.639 10.9844H235.909C238.823 10.9844 241.185 13.0656 241.185 15.6325V16.5575C241.185 19.1244 238.823 21.2056 235.909 21.2056V21.2056Z" fill="#083D57"/>
<path d="M251.094 53.1875H267.75V69.375H251.094V53.1875Z" fill="#083D57"/>
<path d="M232.312 147.977V71.1556C232.312 68.9472 234.754 67.1897 237.261 67.1897H265.479C267.986 67.1897 270.362 68.9472 270.362 71.1556V147.977H232.312V147.977Z" fill="#006CA2"/>
<path d="M238.875 72.9709H248.062V83.3772H238.875V72.9709Z" fill="white"/>
<path d="M254.625 72.9709H263.812V83.3772H254.625V72.9709Z" fill="white"/>
<path d="M254.625 88.0022H263.812V98.4084H254.625V88.0022Z" fill="white"/>
<path d="M238.875 103.033H248.062V113.44H238.875V103.033Z" fill="white"/>
<path d="M254.625 103.033H263.812V113.44H254.625V103.033Z" fill="white"/>
<path d="M238.875 118.065H248.062V128.471H238.875V118.065Z" fill="white"/>
<path d="M294 147.977H266.438V104.178H288.737C289.428 104.178 290.112 104.298 290.751 104.531C291.39 104.764 291.97 105.106 292.458 105.536C292.947 105.967 293.335 106.478 293.599 107.04C293.864 107.603 294 108.206 294 108.815V147.977V147.977Z" fill="#006CA2"/>
<path d="M283.5 147.977V52.147C283.5 49.0482 286.926 46.5738 290.443 46.5738L329.149 46.3657C332.666 46.3657 336 48.8285 336 51.9388V147.977H283.5Z" fill="#006CA2"/>
<path d="M307.125 60.2407H315V68.3345H307.125V60.2407Z" fill="white"/>
<path d="M292.688 60.2407H300.562V68.3345H292.688V60.2407Z" fill="white"/>
<path d="M321.562 72.9595H329.438V81.0532H321.562V72.9595Z" fill="white"/>
<path d="M307.125 72.9595H315V81.0532H307.125V72.9595Z" fill="white"/>
<path d="M307.125 85.6782H315V93.772H307.125V85.6782Z" fill="white"/>
<path d="M292.688 85.6782H300.562V93.772H292.688V85.6782Z" fill="white"/>
<path d="M321.562 98.397H329.438V106.491H321.562V98.397Z" fill="white"/>
<path d="M307.125 98.397H315V106.491H307.125V98.397Z" fill="white"/>
<path d="M292.688 98.397H300.562V106.491H292.688V98.397Z" fill="white"/>
<path d="M307.125 123.834H315V131.928H307.125V123.834Z" fill="white"/>
<path d="M292.688 111.116H300.562V119.209H292.688V111.116Z" fill="white"/>
<path d="M203.582 54.9218H186.742C184.551 54.9218 182.779 54.0662 182.779 52.1353V47.9496C182.779 46.0187 184.551 44.4578 186.742 44.4578H203.582C205.774 44.4578 207.546 46.0187 207.546 47.9496V52.1353C207.546 54.0662 205.774 54.9218 203.582 54.9218Z" fill="#006CA2"/>
<path d="M168 147.954V57.8125C168 54.7137 171.426 52.2394 174.943 52.2394L213.649 52.0312C217.166 52.0312 220.5 54.4941 220.5 57.6044V147.954H168V147.954Z" fill="#006CA2"/>
<path d="M191.625 60.9922H199.5V69.0859H191.625V60.9922Z" fill="white"/>
<path d="M206.062 60.8071H213.938V68.9009H206.062V60.8071Z" fill="white"/>
<path d="M177.083 73.5259H184.958V81.6196H177.083V73.5259Z" fill="white"/>
<path d="M191.625 73.7109H199.5V81.8047H191.625V73.7109Z" fill="white"/>
<path d="M191.625 86.4297H199.5V94.5234H191.625V86.4297Z" fill="white"/>
<path d="M206.062 99.1484H213.938V107.242H206.062V99.1484Z" fill="white"/>
<path d="M177.188 99.1484H185.062V107.242H177.188V99.1484Z" fill="white"/>
<path d="M206.062 124.586H213.938V132.68H206.062V124.586Z" fill="white"/>
<path d="M191.625 124.586H199.5V132.68H191.625V124.586Z" fill="white"/>
<path d="M177.188 111.867H185.062V119.961H177.188V111.867Z" fill="white"/>
<path d="M259 150.004V97.7002C259 96.1966 260.662 95 262.369 95H281.582C283.289 95 284.906 96.1966 284.906 97.7002V150.004H259V150.004Z" fill="#A555B9"/>
<path d="M263.468 98.9363H269.723V106.021H263.468V98.9363Z" fill="white"/>
<path d="M274.191 98.9363H280.447V106.021H274.191V98.9363Z" fill="white"/>
<path d="M274.191 109.17H280.447V116.255H274.191V109.17Z" fill="white"/>
<path d="M263.468 119.404H269.723V126.489H263.468V119.404Z" fill="white"/>
<path d="M274.191 119.404H280.447V126.489H274.191V119.404Z" fill="white"/>
<path d="M263.468 129.638H269.723V136.723H263.468V129.638Z" fill="white"/>
<path d="M301 150.004H282.234V120.184H297.417C297.887 120.184 298.353 120.265 298.788 120.424C299.223 120.583 299.618 120.815 299.95 121.108C300.283 121.401 300.547 121.749 300.727 122.132C300.907 122.515 301 122.926 301 123.34V150.004V150.004Z" fill="#A555B9"/>
</g>
<path d="M377.348 148.15V96.6583C377.348 95.178 375.711 94 374.031 94H355.117C353.436 94 351.844 95.178 351.844 96.6583V148.15H377.348V148.15Z" fill="#A555B9"/>
<path d="M372.949 97.8752H366.791V104.85H372.949V97.8752Z" fill="white"/>
<path d="M362.392 97.8752H356.234V104.85H362.392V97.8752Z" fill="white"/>
<path d="M362.392 107.95H356.234V114.925H362.392V107.95Z" fill="white"/>
<path d="M372.949 118.025H366.791V125H372.949V118.025Z" fill="white"/>
<path d="M362.392 118.025H356.234V125H362.392V118.025Z" fill="white"/>
<path d="M372.949 128.1H366.791V135.075H372.949V128.1Z" fill="white"/>
<path d="M334 148.357H352.474V119H337.528C337.064 119 336.606 119.08 336.178 119.237C335.75 119.393 335.361 119.622 335.033 119.91C334.706 120.199 334.446 120.541 334.269 120.918C334.091 121.296 334 121.7 334 122.108V148.357V148.357Z" fill="#006CA2"/>
<defs>
<clipPath id="clip0_87_488">
<rect width="168" height="148" fill="white"/>
</clipPath>
<clipPath id="clip1_87_488">
<rect width="168" height="148" fill="white" transform="translate(168)"/>
</clipPath>
</defs>
</svg>
